P2
8 8
255
10 255 255 255 255 255 255 255
255 10 255 255 255 255 255 255
255 255 10 255 255 255 255 255
255 255 255 10 255 255 255 255
255 255 100 255 255 255 255 255
255 255 255 255 255 255 255 255
255 255 255 255 255 255 255 255
255 255 255 255 255 255 255 255

